<svg xmlns="http://www.w3.org/2000/svg" width="3175" height="3174"><defs><linearGradient id="prefix__a" x1=".639%" x2="99.361%" y1="0%" y2="100%"><stop offset="0%" stop-color="#ff8f71"/><stop offset="100%" stop-color="#ff3e55"/></linearGradient></defs><path fill="url(#prefix__a)" fill-rule="evenodd" d="M 2563.1 -11657.4 v 0 h -1417.5 v 0 c 0 0 80.7 0 180.2 0 h 1237.3 z m -2361 0 c 391.4 0 708.7 0 708.7 0 v 0 c 0 0 -317.3 0 -708.7 0 S -506.6 -11657.4 -506.6 -11657.4 v 0 c 0 0 317.3 0 708.7 0 z m 706.6 0 v 0 c 0 0 -80.7 0 -180.2 0 H -508.8 v 0 h 1417.5 z m 1654.3 0 v 0 h -1237.3 c -99.5 0 -180.2 0 -180.2 0 v 0 h 1417.5 z" transform="matrix(0.9,0.4,-0.4,0.9,969.4,125.4)"/></svg>