<svg xmlns="http://www.w3.org/2000/svg"   width="3175" height="31740"><defs><linearGradient id="a" x1=".639%" x2="99.361%" y1="0%" y2="100%"><stop offset="0%" stop-color="#ff8f71"/><stop offset="100%" stop-color="#ff3e55"/></linearGradient></defs><path fill="url(#a)" fill-rule="evenodd" d="M 6886 3227.7 v 2793.7 h -3089.9 v -2439.5 c 0 -195.5 176.1 -354.3 392.6 -354.3 h 2697 z m -5146 -4.2 c 853.4 0 1544.9 623.9 1544.9 1394.1 v 5.5 c 0 770.2 -691.7 1394.1 -1544.9 1394.1 S 195.2 5393 195.2 4623.2 v -5.5 c 0 -770.2 691.7 -1394.1 1544.9 -1394.1 z m 1540.3 -3282.8 v 2439.5 c 0 195.5 -176.1 354.3 -392.6 354.3 H 190.4 v -2793.7 h 3089.9 z m 3605.6 0 v 2793.7 h -2697 c -216.7 0 -392.6 -158.8 -392.6 -354.3 v -2439.5 h 3089.9 z" transform="matrix(0.9,0.4,-0.4,0.9,969.4,125.4)" /></svg>